HIERARCHY
ROOT Hips
{
    OFFSET 0.000000 0.000000 0.000000
    CHANNELS 6 Xposition Yposition Zposition Zrotation Xrotation Yrotation
    JOINT Spine
    {
        OFFSET -0.000000 7.858286 0.000000
        CHANNELS 3 Zrotation Xrotation Yrotation
        JOINT Spine1
        {
            OFFSET -0.000000 25.138355 0.000000
            CHANNELS 3 Zrotation Xrotation Yrotation
            JOINT Neck
            {
                OFFSET -0.000000 25.035116 2.275919
                CHANNELS 3 Zrotation Xrotation Yrotation
                JOINT Head
                {
                    OFFSET -0.000000 13.416585 -1.916655
                    CHANNELS 3 Zrotation Xrotation Yrotation
                    End Site
                    {
                        OFFSET -0.000000 23.958189 0.000000
                    }
                }
            }
            JOINT LeftShoulder
            {
                OFFSET 3.815342 24.034578 -0.234509
                CHANNELS 3 Zrotation Xrotation Yrotation
                JOINT LeftArm
                {
                    OFFSET 8.622727 0.000000 0.000000
                    CHANNELS 3 Zrotation Xrotation Yrotation
                    JOINT LeftForeArm
                    {
                        OFFSET 31.706440 0.000000 0.000000
                        CHANNELS 3 Zrotation Xrotation Yrotation
                        JOINT LeftHand
                        {
                            OFFSET 23.773136 0.000000 0.000000
                            CHANNELS 3 Zrotation Xrotation Yrotation
                            End Site
                            {
                                OFFSET 14.374913 0.000000 0.000000
                            }
                        }
                    }
                }
            }
            JOINT RightShoulder
            {
                OFFSET -3.836082 24.034578 -0.234509
                CHANNELS 3 Zrotation Xrotation Yrotation
                JOINT RightArm
                {
                    OFFSET -8.622727 0.000000 0.000000
                    CHANNELS 3 Zrotation Xrotation Yrotation
                    JOINT RightForeArm
                    {
                        OFFSET -31.706440 0.000000 0.000000
                        CHANNELS 3 Zrotation Xrotation Yrotation
                        JOINT RightHand
                        {
                            OFFSET -23.773136 0.000000 0.000000
                            CHANNELS 3 Zrotation Xrotation Yrotation
                            End Site
                            {
                                OFFSET -14.374913 0.000000 0.000000
                            }
                        }
                    }
                }
            }
        }
    }
    JOINT LeftUpLeg
    {
        OFFSET 9.583276 0.000000 0.000000
        CHANNELS 3 Zrotation Xrotation Yrotation
        JOINT LeftLeg
        {
            OFFSET -0.000000 -36.453522 0.000000
            CHANNELS 3 Zrotation Xrotation Yrotation
            JOINT LeftFoot
            {
                OFFSET -0.000000 -41.465855 0.000000
                CHANNELS 3 Zrotation Xrotation Yrotation
                JOINT LeftToeBase
                {
                    OFFSET -0.000000 -6.229129 14.374913
                    CHANNELS 3 Zrotation Xrotation Yrotation
                    End Site
                    {
                        OFFSET -0.000000 0.000000 3.833310
                    }
                }
            }
        }
    }
    JOINT RightUpLeg
    {
        OFFSET -9.583276 0.000000 0.000000
        CHANNELS 3 Zrotation Xrotation Yrotation
        JOINT RightLeg
        {
            OFFSET -0.000000 -36.453522 0.000000
            CHANNELS 3 Zrotation Xrotation Yrotation
            JOINT RightFoot
            {
                OFFSET -0.000000 -41.465855 0.000000
                CHANNELS 3 Zrotation Xrotation Yrotation
                JOINT RightToeBase
                {
                    OFFSET -0.000000 -6.229129 14.374913
                    CHANNELS 3 Zrotation Xrotation Yrotation
                    End Site
                    {
                        OFFSET -0.000000 0.000000 3.833310
                    }
                }
            }
        }
    }
}
MOTION
Frames:    7
Frame Time:    0.004000
-5.545111    79.282249    -202.025650    -0.105212    0.781327    -1.107996    -0.282612    -12.123920    -0.333272    1.245098    0.321528    -0.306737    -0.449865    30.135763    0.243907    0.806542    -9.276621    0.370974    8.207939    4.305439    4.169842    -11.054861    10.339930    -4.335005    3.078299    -8.251705    1.796990    7.760012    -8.278502    0.312707    -7.665067    3.240298    6.820800    5.086326    0.754263    1.830224    -1.961210    -6.508744    1.791378    -9.225929    -6.624449    1.823228    1.744898    6.618466    -0.109108    -7.764817    -3.513308    0.238210    7.248766    -4.581326    8.471103    0.000000    0.000000    0.000000    0.625636    0.955721    -0.340039    3.307800    5.873112    0.385576    -4.820290    -8.725615    -10.578487    0.000000    0.000000    0.000000    
-5.553705    79.277390    -202.027130    -0.089825    0.768950    -1.027435    -0.291475    -12.096059    -0.357442    1.231827    0.324963    -0.330030    -0.493846    30.160137    0.245248    0.882210    -9.316132    0.383075    8.210926    4.317082    4.160842    -11.066206    10.323155    -4.352992    3.080102    -8.268099    1.809224    7.713922    -8.294861    0.320389    -7.649430    3.235960    6.810744    5.091056    0.723984    1.831912    -1.948791    -6.455108    1.763568    -9.148274    -6.575306    1.886898    1.742082    6.605349    -0.132214    -7.764813    -3.479756    0.200911    7.323269    -4.610621    8.446749    0.000000    0.000000    0.000000    0.621042    0.973343    -0.396033    3.300673    5.871906    0.311766    -4.781981    -8.744959    -10.515066    0.000000    0.000000    0.000000    
-5.554942    79.276108    -202.029297    -0.071585    0.770570    -1.002313    -0.288179    -12.085538    -0.360791    1.197714    0.319584    -0.333707    -0.417522    30.156322    0.243152    0.783517    -9.307937    0.369717    8.227728    4.333146    4.163957    -11.071827    10.319416    -4.367358    3.084147    -8.302814    1.813375    7.637794    -8.333788    0.262318    -7.631426    3.236719    6.807379    5.098419    0.738198    1.829021    -1.962028    -6.441987    1.758760    -9.062515    -6.561418    1.896648    1.722706    6.593752    -0.134553    -7.756320    -3.469891    0.160858    7.303310    -4.609499    8.470379    0.000000    0.000000    0.000000    0.597765    0.967357    -0.388477    3.308342    5.886648    0.312851    -4.827349    -8.771069    -10.524745    0.000000    0.000000    0.000000    
-5.559046    79.278351    -202.032944    -0.066077    0.778333    -0.991530    -0.285912    -12.089186    -0.358629    1.195544    0.325916    -0.331954    -0.426937    30.148272    0.240157    0.793643    -9.291628    0.367631    8.225744    4.324716    4.166080    -11.072115    10.321205    -4.380144    3.067167    -8.296292    1.808381    7.715119    -8.321796    0.335924    -7.627271    3.236462    6.809620    5.102363    0.722687    1.823722    -1.963217    -6.412199    1.747126    -8.984055    -6.533329    1.932663    1.712511    6.573534    -0.105464    -7.744726    -3.448021    0.179415    7.306089    -4.611840    8.421371    0.000000    0.000000    0.000000    0.589958    0.949573    -0.357550    3.323188    5.900316    0.283710    -4.806770    -8.767756    -10.546847    0.000000    0.000000    0.000000    
-5.563518    79.273979    -202.034515    -0.059422    0.771935    -0.935087    -0.281054    -12.067789    -0.377312    1.162849    0.314610    -0.350936    -0.417118    30.165884    0.245726    0.812241    -9.309299    0.378903    8.248514    4.341988    4.157903    -11.087108    10.314964    -4.386383    3.054143    -8.283826    1.808757    7.719556    -8.310562    0.314356    -7.602786    3.236826    6.812274    5.099236    0.694820    1.814747    -1.908741    -6.394787    1.781338    -9.222264    -6.513659    1.851028    1.718387    6.558048    -0.131656    -7.749836    -3.417146    0.114240    7.354859    -4.636465    8.459332    0.000000    0.000000    0.000000    0.582854    0.963557    -0.359436    3.340558    5.901250    0.309611    -4.833752    -8.793164    -10.625832    0.000000    0.000000    0.000000    
-5.567159    79.274155    -202.033997    -0.050454    0.772706    -0.905775    -0.290742    -12.069865    -0.381702    1.172865    0.328970    -0.354446    -0.414603    30.173325    0.239167    0.793401    -9.333296    0.368172    8.228050    4.323982    4.146091    -11.081022    10.364353    -4.387360    3.074529    -8.311280    1.806240    7.638684    -8.337236    0.333419    -7.608376    3.222556    6.794596    5.110160    0.705826    1.817954    -1.930609    -6.378179    1.775090    -9.132013    -6.496410    1.864253    1.711469    6.547213    -0.144066    -7.741191    -3.408638    0.101313    7.320694    -4.636731    8.441550    0.000000    0.000000    0.000000    0.576549    0.974330    -0.349549    3.338628    5.883083    0.263925    -4.819496    -8.787540    -10.605244    0.000000    0.000000    0.000000    
-5.571840    79.268387    -202.056595    -0.031827    0.820265    -0.901057    -0.303410    -12.079614    -0.380410    1.173308    0.305641    -0.351481    -0.428448    30.166376    0.244117    0.808904    -9.330079    0.374642    8.221042    4.330784    4.159985    -11.073145    10.327382    -4.405866    3.074289    -8.296496    1.809050    7.558981    -8.324214    0.311024    -7.605841    3.227156    6.797605    5.112156    0.670359    1.814998    -1.919689    -6.349264    1.770905    -9.106307    -6.468227    1.875737    1.697894    6.453685    -0.102277    -7.746910    -3.348573    0.041200    7.327641    -4.669863    8.467566    0.000000    0.000000    0.000000    0.552033    0.884665    -0.314956    3.358606    5.929348    0.222051    -4.909048    -8.823572    -10.596106    0.000000    0.000000    0.000000    
